<svg id="_x33_0" enable-background="new 0 0 62 62" height="512" viewBox="0 0 62 62" width="512" xmlns="http://www.w3.org/2000/svg" xmlns:xlink="http://www.w3.org/1999/xlink"><linearGradient id="SVGID_1_" gradientUnits="userSpaceOnUse" x1="31" x2="31" y1="62" y2="0"><stop offset="0" stop-color="#9f2fff"/><stop offset="1" stop-color="#0bb1d3"/></linearGradient><path d="m12 52h-6c-1.103 0-2 .897-2 2v2c0 1.103.897 2 2 2h6c1.103 0 2-.897 2-2v-2c0-1.103-.897-2-2-2zm-6 4v-2h6l.001 2zm54-24h-6c-1.103 0-2 .897-2 2v4h-6v-35c0-1.654-1.346-3-3-3h-30c-1.654 0-3 1.346-3 3v33h-8c-1.103 0-2 .897-2 2v24h62v-28c0-1.103-.897-2-2-2zm-8 8v20h-6v-14-6zm-16 20h-6v-8h6zm2-8v-6h6v14h-6zm-28-14h6v4.382l-3-1.5-3 1.5zm14 22h-22v-22h6v7.618l5-2.5 5 2.5v-7.618h6zm0-24h-12v-33c0-.551.449-1 1-1h30c.551 0 1 .449 1 1v37 4h-6c-1.103 0-2 .897-2 2v4h-6c-1.103 0-2 .897-2 2v8h-2v-22c0-1.103-.897-2-2-2zm36 24h-6v-20-6h6zm-10-43v-1h2v1c0 1.654 1.346 3 3 3h3v-1c0-1.654-1.346-3-3-3-2.757 0-5-2.243-5-5v-3h4v-2h2v2.101c2.279.465 4 2.484 4 4.899v1h-2v-1c0-1.654-1.346-3-3-3h-3v1c0 1.654 1.346 3 3 3 2.757 0 5 2.243 5 5v3h-4v2h-2v-2.101c-2.279-.465-4-2.485-4-4.899zm-48 15h2c1.103 0 2-.897 2-2v-2c0-1.103-.897-2-2-2h-2c-1.103 0-2 .897-2 2v2c0 1.103.897 2 2 2zm0-4h2l.001 2h-2.001zm0-4h2c1.103 0 2-.897 2-2v-2c0-1.103-.897-2-2-2h-2c-1.103 0-2 .897-2 2v2c0 1.103.897 2 2 2zm0-4h2l.001 2h-2.001zm0-4h2c1.103 0 2-.897 2-2v-2c0-1.103-.897-2-2-2h-2c-1.103 0-2 .897-2 2v2c0 1.103.897 2 2 2zm0-4h2l.001 2h-2.001zm40 0v-6c0-1.103-.897-2-2-2h-24c-1.103 0-2 .897-2 2v6c0 1.103.897 2 2 2h24c1.103 0 2-.897 2-2zm-26-6h24l.001 6h-24.001zm4 20h-4c-1.103 0-2 .897-2 2v4c0 1.103.897 2 2 2h4c1.103 0 2-.897 2-2v-4c0-1.103-.897-2-2-2zm-4 6v-4h4l.001 4zm4-16h-4c-1.103 0-2 .897-2 2v4c0 1.103.897 2 2 2h4c1.103 0 2-.897 2-2v-4c0-1.103-.897-2-2-2zm-4 6v-4h4l.001 4zm14 12c1.103 0 2-.897 2-2v-4c0-1.103-.897-2-2-2h-4c-1.103 0-2 .897-2 2v4c0 1.103.897 2 2 2zm-4-6h4l.001 4h-4.001zm4-12h-4c-1.103 0-2 .897-2 2v4c0 1.103.897 2 2 2h4c1.103 0 2-.897 2-2v-4c0-1.103-.897-2-2-2zm-4 6v-4h4l.001 4zm14 4h-4c-1.103 0-2 .897-2 2v12c0 1.103.897 2 2 2h4c1.103 0 2-.897 2-2v-12c0-1.103-.897-2-2-2zm-4 14v-12h4l.001 12zm4-24h-4c-1.103 0-2 .897-2 2v4c0 1.103.897 2 2 2h4c1.103 0 2-.897 2-2v-4c0-1.103-.897-2-2-2zm-4 6v-4h4l.001 4z" fill="url(#SVGID_1_)"/></svg>