<svg height="496pt" viewBox="0 0 496 496" width="496pt" xmlns="http://www.w3.org/2000/svg" xmlns:xlink="http://www.w3.org/1999/xlink"><linearGradient id="linear0" gradientUnits="userSpaceOnUse" x1="248" x2="248" y1="496" y2="0"><stop offset="0" stop-color="#9f2fff"/><stop offset="1" stop-color="#0bb1d3"/></linearGradient><path d="m96 48h-16v-16h16zm192-16h-176v16h176zm0 32h-208v16h208zm-16 48h16v-16h-16zm-16-16h-176v16h176zm32 32h-208v16h208zm208 240c0 70.574219-57.425781 128-128 128s-128-57.425781-128-128c0-5.433594.449219-10.742188 1.113281-16h-241.113281v-234.664062l48-64v-53.335938h272v53.335938l48 64v122.664062c70.574219 0 128 57.425781 128 128zm-144-126.886719v-101.800781l-103.296875 103.296875 35.394531 28.957031c18.695313-16.285156 42.09375-27.214844 67.902344-30.453125zm-32-161.113281v68.6875l29.441406-29.441406zm-256-64v148.6875l71.03125 71.03125c13.082031 13.082031 30.464844 20.28125 48.96875 20.28125 18.496094 0 35.886719-7.199219 48.96875-20.289062l71.03125-71.023438v-148.6875zm-48 123.3125v187.808594l103.296875-84.511719zm32-59.3125-29.441406 39.246094 29.441406 29.441406zm196.214844 256c5.183594-20.03125 15.066406-38.136719 28.457031-53.121094l-35.816406-29.304687c-15 11.914062-33.414063 18.425781-52.855469 18.425781s-37.855469-6.511719-52.855469-18.425781l-100.738281 82.425781zm235.785156 32c0-61.761719-50.238281-112-112-112s-112 50.238281-112 112 50.238281 112 112 112 112-50.238281 112-112zm-48-16v56c0 13.230469-10.769531 24-24 24-12.078125 0-22.007812-9-23.664062-20.632812-4.792969 2.871093-10.34375 4.632812-16.335938 4.632812-17.648438 0-32-14.351562-32-32v-32c0-17.648438 14.351562-32 32-32s32 14.351562 32 32v56c0 4.40625 3.585938 8 8 8s8-3.59375 8-8v-56c0-26.472656-21.527344-48-48-48s-48 21.527344-48 48v32c0 26.472656 21.527344 48 48 48h24v16h-24c-35.289062 0-64-28.710938-64-64v-32c0-35.289062 28.710938-64 64-64s64 28.710938 64 64zm-48 32v-32c0-8.824219-7.175781-16-16-16s-16 7.175781-16 16v32c0 8.824219 7.175781 16 16 16s16-7.175781 16-16zm80-24h-16v16h16zm-192 16h16v-16h-16zm0 0" fill="url(#linear0)"/></svg>