<svg height="60pt" viewBox="-6 0 60 60" width="60pt" xmlns="http://www.w3.org/2000/svg" xmlns:xlink="http://www.w3.org/1999/xlink"><linearGradient id="a"><stop offset="0" stop-color="#20d6de"/><stop offset="1" stop-color="#5e309d"/></linearGradient><linearGradient id="b" gradientUnits="userSpaceOnUse" x1="-9" x2="53.514" xlink:href="#a" y1="30" y2="30"/><linearGradient id="c" gradientUnits="userSpaceOnUse" x1="-9" x2="53.514" xlink:href="#a" y1="11" y2="11"/><linearGradient id="d" gradientUnits="userSpaceOnUse" x1="-9" x2="53.514" xlink:href="#a" y1="28" y2="28"/><linearGradient id="e" gradientUnits="userSpaceOnUse" x1="-9" x2="53.514" xlink:href="#a" y1="5" y2="5"/><linearGradient id="f" gradientUnits="userSpaceOnUse" x1="-9" x2="53.514" xlink:href="#a" y1="9" y2="9"/><linearGradient id="g" gradientUnits="userSpaceOnUse" x1="-9" x2="53.514" xlink:href="#a" y1="13" y2="13"/><linearGradient id="h" gradientUnits="userSpaceOnUse" x1="-9" x2="53.514" xlink:href="#a" y1="17" y2="17"/><linearGradient id="i" gradientUnits="userSpaceOnUse" x1="-9" x2="53.514" xlink:href="#a" y1="39" y2="39"/><linearGradient id="j" gradientUnits="userSpaceOnUse" x1="-9" x2="53.514" xlink:href="#a" y1="43" y2="43"/><linearGradient id="k" gradientUnits="userSpaceOnUse" x1="-9" x2="53.514" xlink:href="#a" y1="47" y2="47"/><linearGradient id="l" gradientUnits="userSpaceOnUse" x1="-9" x2="53.514" xlink:href="#a" y1="55" y2="55"/><linearGradient id="m" gradientUnits="userSpaceOnUse" x1="-9" x2="53.514" xlink:href="#a" y1="51" y2="51"/><linearGradient id="n" gradientUnits="userSpaceOnUse" x1="-9" x2="53.514" xlink:href="#a" y1="53" y2="53"/><path d="m37.414062 0h-37.414062v60h48v-49.414062zm7.171876 10h-6.585938v-6.585938zm-42.585938 48v-56h34v9c0 .550781.449219 1 1 1h9v46zm0 0" fill="url(#b)"/><path d="m18 4h-14v14h14zm-8.414062 7-3.585938 3.585938v-7.171876zm-2.171876-5h7.171876l-3.585938 3.585938zm3.585938 6.414062 3.585938 3.585938h-7.171876zm1.414062-1.414062 3.585938-3.585938v7.171876zm0 0" fill="url(#c)"/><path d="m32 35h12v-14h-12zm2-12h8v10h-8zm0 0" fill="url(#d)"/><path d="m30 21h-12v14h12zm-2 12h-8v-10h8zm0 0" fill="url(#d)"/><path d="m16 21h-12v14h12zm-2 12h-8v-10h8zm0 0" fill="url(#d)"/><path d="m20 4h10v2h-10zm0 0" fill="url(#e)"/><path d="m20 8h4v2h-4zm0 0" fill="url(#f)"/><path d="m26 8h4v2h-4zm0 0" fill="url(#f)"/><path d="m20 12h12v2h-12zm0 0" fill="url(#g)"/><path d="m20 16h10v2h-10zm0 0" fill="url(#h)"/><path d="m32 16h2v2h-2zm0 0" fill="url(#h)"/><path d="m36 16h4v2h-4zm0 0" fill="url(#h)"/><path d="m4 38h18v2h-18zm0 0" fill="url(#i)"/><path d="m24 38h4v2h-4zm0 0" fill="url(#i)"/><path d="m4 42h8v2h-8zm0 0" fill="url(#j)"/><path d="m14 42h2v2h-2zm0 0" fill="url(#j)"/><path d="m18 42h16v2h-16zm0 0" fill="url(#j)"/><path d="m4 46h30v2h-30zm0 0" fill="url(#k)"/><path d="m4 54h30v2h-30zm0 0" fill="url(#l)"/><g fill="url(#m)"><path d="m4 50h8v2h-8zm0 0"/><path d="m14 50h2v2h-2zm0 0"/><path d="m18 50h4v2h-4zm0 0"/><path d="m24 50h4v2h-4zm0 0"/></g><path d="m42 54h-3v2h5v-6h-2zm0 0" fill="url(#n)"/><path d="m42 46h2v2h-2zm0 0" fill="url(#k)"/></svg>